<svg id="katman_1" data-name="katman 1" xmlns="http://www.w3.org/2000/svg" viewBox="0 0 4000 2000"><defs><style>.cls-1{font-size:538.09px;font-family:SegoePrint, Segoe Print;}.cls-2{letter-spacing:-0.01em;}.cls-3{font-size:213.76px;fill:#1d1d1b;font-family:ArialMT, Arial;}.cls-4{letter-spacing:-0.07em;}.cls-5{fill:#4bc1f0;}</style></defs><title>web</title><text class="cls-1" transform="translate(504.89 1060.97) rotate(0.07)">DIAM<tspan class="cls-2" x="1525.46" y="0" xml:space="preserve">  </tspan><tspan x="1949.37" y="0">ND</tspan></text><text class="cls-3" transform="translate(2497.98 1265.02)"><tspan class="cls-4">Y</tspan><tspan x="126.71" y="0">azılım</tspan></text><path class="cls-5" d="M2208.19,1081.5c-19.87-65.13-83.89-104.7-103.91-169.77-3.38-11,34.61-40.88,24.57-40.34-13.28.72-26.6.18-39.9.18s-26.62-.47-39.89.24c-4.85.26-9.59,3.3-14.38,5.08,2,5.32,3,11.67,6.13,15.82"/><path class="cls-5" d="M2422.64,892.15c2.91-3.84,4.05-9.51,6-14.33-4.61-2.08-9.2-5.86-13.85-6-27.16-.57-54.33,0-81.49-.45-9.41-.17-14.66,4-17.82,14.22-20.28,65.71-40.94,131.27-61.08,197"/><path class="cls-5" d="M2232.06,871.59c-13.82,0-27.63.23-41.44-.07-11.33-.25-15.77,4.73-12.11,18.12,14.75,54,29.17,108.19,44.17,162.13,1.21,4.33,6,7.33,9.05,11,3-3.8,7.45-7,8.69-11.47,15-53.94,29.51-108.07,44.2-162.13,3.23-11.92-43.81,119.52-54.72,119.66C2216.08,1009,2245.87,871.6,2232.06,871.59Z"/><path class="cls-5" d="M2156.69,679.13c-31-3.61-61.44-5.93-73.83,38.6-.16.57-.85,1.09-.8,1.56.7,7.09-.76,16.56,2.61,20.83,18,22.76,37.4,44.08,56,66.19,8.38,9.93,14.56,8,19.89-3.46,16.18-34.82-52.65-106.11,48.57-104.44,5.76-12.36,2.75-19-9.37-19.22C2185.44,678.94,2171.06,679.13,2156.69,679.13Z"/><path class="cls-5" d="M2309.84,679.11c-12.75,0-25.5-.23-38.24.06-15.4.34-18.41,5.72-11.29,21.33,142.49,14.66,30.1,63.81,44.56,96.08,6.54,14.58,13,13.4,21.71,3.07,16-19,31.88-38.09,48.54-56.25,9.12-9.95,8-18,3.06-30.57-10.76-27.27-26.8-39.35-52.44-33.89C2320.6,680,2315.15,679.1,2309.84,679.11Z"/><path class="cls-5" d="M2233.65,836.42v-.13c13.8,0,27.61.37,41.4-.14,8.89-.33-30.82-23.88-35.64-34.28-13.33-28.77,17.21-39.11,3.57-67.69-5.55-11.64-12.36-11-17.71.22-13.35,28.05-26.3,56.37-39.37,84.61-5.7,12.32-1,17.22,9.52,17.37C2208.16,836.55,2220.9,836.42,2233.65,836.42Z"/><path class="cls-5" d="M2391.47,836.35c11.18,0,22.38.35,33.56-.11,9.83-.39,14.13-5.48,8.32-16.73-7.94-15.4-16-30.7-24-46.07-4.6-8.87-11.37,26.76-17.79,34-14.12,16-27.17-4.92-40.82,11.63-2.23,2.71-4.43,9.29-3.24,11.13,2.08,3.25,6.71,5.65,10.4,5.89C2369.06,836.85,2380.28,836.38,2391.47,836.35Z"/><path class="cls-5" d="M2069.81,836.44v-.15c11.66,0,23.35.57,35-.17,10.29-.65,14.09-6.78,6.19-16.52-13.09-16.14-26.76-31.65-40.39-47.19-6.85-7.81-13-6.76-18,3q-11,21.39-22.24,42.66c-7,13.17,84.91-25.5,9.31,18.33C2030.89,841.44,2059.74,836.44,2069.81,836.44Z"/><path class="cls-5" d="M2232.06,871.59c13.81,0-16,137.37-2.16,137.19,10.91-.14,0-82.31,54.72-119.66-14.69,54.06-29.2,108.19-44.2,162.13-1.24,4.45-5.72,7.67-8.69,11.47-3.1-3.62-7.84-6.62-9.05-11-15-53.94-29.42-108.1-44.17-162.13-3.66-13.39.78-18.37,12.11-18.12C2204.43,871.82,2218.24,871.59,2232.06,871.59Z"/><path class="cls-5" d="M2156.69,679.13c14.37,0,28.75-.19,43.12.06,12.12.22-47,29.76-52.78,42.12-16.22,34.79,29.76,46.72,13.58,81.54-5.33,11.47-11.51,13.39-19.89,3.46-18.65-22.11-38-43.43-56-66.19-3.37-4.27-1.91-13.74-2.61-20.83,0-.47.64-1,.8-1.56C2095.25,673.2,2125.73,675.52,2156.69,679.13Z"/><path class="cls-5" d="M2309.84,679.11c5.31,0,10.76.93,15.9-.17,25.64-5.46,41.68,6.62,52.44,33.89,5,12.6,6.06,20.62-3.06,30.57-16.66,18.16-32.56,37.27-48.54,56.25-8.68,10.33,21.5-59.35,15-73.94-14.46-32.26-6.3,0-81.23-25.21-7.12-15.61-4.11-21,11.29-21.33C2284.34,678.88,2297.09,679.11,2309.84,679.11Z"/><path class="cls-5" d="M2233.65,836.42c-12.75,0-25.49.13-38.23,0-10.54-.15-15.22-5-9.52-17.37,13.07-28.24,26-56.56,39.37-84.61,5.35-11.23,12.16-11.86,17.71-.22,13.64,28.58-16.9,38.92-3.57,67.69,4.82,10.4,44.53,34,35.64,34.28-13.79.51-27.6.14-41.4.14Z"/><path class="cls-5" d="M2391.47,836.37c-11.19,0-22.41.48-33.56-.25-3.69-.24-8.32-2.64-10.4-5.89-1.19-1.84-.24-10.65,3.24-11.13,45.91-6.37,31.79,9.64,45.91-6.37,6.41-7.27,8.1-48.16,12.7-39.29,8,15.37,16,30.67,24,46.07,5.81,11.25,1.51,16.34-8.32,16.73C2413.85,836.7,2402.65,836.35,2391.47,836.37Z"/><path class="cls-5" d="M2069.81,836.44c-10.07,0,11.39-28.74,1.32-29-11.33-.27-47.83,23.76-40.84,10.59q11.26-21.24,22.24-42.66c5-9.75,11.2-10.8,18-3,13.63,15.54,27.3,31.05,40.39,47.19,7.9,9.74,4.1,15.87-6.19,16.52-11.62.74-23.31.17-35,.17Z"/></svg>